<?xml version="1.0" encoding="UTF-8"?>
<svg width="60px" height="60px" viewBox="0 0 60 60" version="1.1" xmlns="http://www.w3.org/2000/svg" xmlns:xlink="http://www.w3.org/1999/xlink">
    <!-- Generator: Sketch 43.2 (39069) - http://www.bohemiancoding.com/sketch -->
    <title>icon_60_award_6</title>
    <desc>Created with Sketch.</desc>
    <defs></defs>
    <g id="icons" stroke="none" stroke-width="1" fill="none" fill-rule="evenodd">
        <g id="icons_web" transform="translate(-355.000000, -309.000000)">
            <g id="Slices" transform="translate(50.000000, 84.000000)"></g>
            <path d="M371.376779,320.108684 L375.556253,324.240789 C375.497831,324.431842 374.505463,325.510263 374.278884,325.801579 C372.170989,328.512632 371.5252,333.566053 373.049674,336.728684 C373.888095,338.471842 374.77941,340.383158 375.698358,341.932105 C375.684937,342.235263 375.047831,344.804211 374.940463,345.101053 C374.852042,345.586579 375.227042,348.938684 375.366779,349.263947 L375.366779,350.163158 C375.366779,350.174211 374.560726,352.391842 374.514937,352.481053 C374.353095,352.792105 374.4202,356.096053 374.4202,356.737895 C374.02941,357.238421 373.196516,358.111579 373.142831,358.534737 C373.038621,359.367632 374.107568,361.451053 374.608884,361.657895 C375.002042,361.818947 377.259147,361.011316 377.400463,360.806053 L382.935463,361.988684 C383.6902,362.081053 383.507831,361.727368 383.64441,361.232368 L385.442831,360.238421 L388.517042,360.948158 C390.155989,361.106842 389.71941,358.660263 389.368095,358.534737 C389.573358,358.071316 389.724147,357.506053 389.415463,357.022105 L383.124937,350.588684 L385.81941,349.316842 L385.801253,349.326316 C385.808358,349.321579 385.815463,349.317632 385.823358,349.313684 C386.475463,348.971842 387.033621,348.656842 387.534937,348.408947 C388.044147,348.157895 388.524147,347.961316 389.049147,347.848421 C390.0202,347.640789 391.104937,347.729211 392.7802,348.202895 C392.777831,348.193421 392.775463,348.184737 392.773884,348.176053 L395.707568,349.17 L398.308884,349.121842 C398.654674,348.944211 398.861516,348.852632 399.159937,348.460263 L400.635463,346.053947 C400.827305,345.741316 400.7752,345.164211 400.295989,345.006316 L393.577568,343.208684 L393.5302,343.208684 L389.415463,343.067368 C389.180989,343.087105 388.888884,343.000263 388.706516,342.830526 C387.594147,341.795526 387.509674,340.619211 386.955463,338.621053 C386.638095,337.473947 384.468621,333.881842 383.739937,332.707895 L388.563621,326.179737 C388.622042,325.895526 388.929147,325.463684 388.989937,324.997895 L389.226779,319.132105 C389.435989,318.748421 389.399674,318.487895 389.936516,318.422368 L392.544937,317.992105 C393.881516,317.713421 393.632042,315.847895 393.152042,315.442105 C392.724937,315.080526 392.456516,315.021316 392.117831,315 L385.44441,315 C385.065463,315.132632 384.884674,315.293684 384.759147,315.416053 C383.928621,316.207895 383.927831,316.578947 383.455726,317.476579 L382.793358,322.158947 C382.479147,322.790526 382.667831,322.755 382.093884,323.307632 C382.141253,322.936579 382.130989,322.199211 381.774937,321.852632 L378.298884,318.469737 L380.846516,317.741053 C381.877568,317.573684 382.177568,315.478421 381.421253,315.111316 C381.392831,315.068684 381.333621,315.025263 381.265726,315 L372.43941,315 C371.237831,315.39 370.517042,318.926842 371.376779,320.108684 Z M389.165989,348.393947 C388.704147,348.492632 388.270726,348.667895 387.782042,348.908684 C387.492305,349.050789 387.193884,349.211842 386.861516,349.390263 L391.922042,353.711053 C393.095989,354.316579 395.295463,354.590526 396.748095,354.845526 C398.114674,355.084737 397.528095,352.233158 397.267568,351.581842 C396.615463,349.946842 394.497305,350.624211 393.720463,350.163158 C393.575989,350.077105 393.249147,349.412368 393.017042,348.852632 C391.143621,348.288158 390.074674,348.198947 389.165989,348.393947 Z" id="berlin" fill="#E8BF42" fill-rule="nonzero" transform="translate(385.869699, 338.501694) scale(-1, 1) rotate(-180.000000) translate(-385.869699, -338.501694) "></path>
        </g>
    </g>
</svg>