<?xml version="1.0" encoding="UTF-8"?>
<svg width="60px" height="60px" viewBox="0 0 60 60" version="1.1" xmlns="http://www.w3.org/2000/svg" xmlns:xlink="http://www.w3.org/1999/xlink">
    <!-- Generator: Sketch 43.2 (39069) - http://www.bohemiancoding.com/sketch -->
    <title>icon_60_award_3</title>
    <desc>Created with Sketch.</desc>
    <defs></defs>
    <g id="icons" stroke="none" stroke-width="1" fill="none" fill-rule="evenodd">
        <g id="icons_web" transform="translate(-172.000000, -309.000000)">
            <g id="Slices" transform="translate(50.000000, 84.000000)"></g>
            <path d="M192.997632,314.535399 C192.101579,315.207241 192.328947,321.960399 194.112368,327.380136 C194.197632,327.640662 194.291579,327.900399 194.393421,328.160136 C192.876842,327.963557 190.730263,327.993557 188.380789,328.295136 C184.907895,328.741188 182.017632,329.647504 181,330.527767 C182.206316,331.121452 185.233158,331.270662 188.705263,330.825399 C191.242632,330.498557 193.470526,329.925399 194.882895,329.297767 C194.953158,329.448557 195.025789,329.599346 195.099211,329.748557 C193.711316,330.384083 191.667368,331.951188 189.638421,334.027504 C187.192632,336.531715 185.488158,339.036715 185.235526,340.357504 C186.55,340.075662 189.016316,338.314346 191.463684,335.810925 C193.366316,333.860925 194.821316,331.910136 195.491579,330.518294 C195.855526,331.209873 196.235263,331.877767 196.596053,332.509346 C196.742105,332.765136 196.892895,333.018557 197.047632,333.270399 C196.082895,333.89882 194.813421,335.074346 193.576316,336.550662 C191.901053,338.54882 190.775263,340.504346 190.663947,341.500662 C191.623158,341.217241 193.356053,339.769346 195.032105,337.770399 C196.170526,336.411715 197.054737,335.072767 197.539474,334.041715 C197.947632,334.662241 198.379474,335.270925 198.825526,335.870136 C197.813421,336.478031 196.422368,337.744346 195.066842,339.361188 C193.344211,341.41382 192.188421,343.425399 192.073158,344.450136 C193.059211,344.158031 194.841053,342.669873 196.564474,340.614083 C197.852895,339.076978 198.824737,337.563557 199.279474,336.470136 C199.783947,337.127767 200.303421,337.775136 200.826053,338.413031 C199.949737,339.154346 198.836579,340.490136 197.793684,342.121978 C196.397105,344.311188 195.539737,346.388294 195.557105,347.386188 C196.468158,346.982767 197.993421,345.32961 199.39,343.13882 C200.347632,341.637241 201.052632,340.189346 201.395263,339.105399 C201.591053,339.343031 201.786842,339.579083 201.982632,339.815136 C202.454737,340.384346 202.923684,340.954346 203.387105,341.529083 C202.448421,342.380136 201.302895,343.783031 200.226053,345.470925 C198.670789,347.905662 197.715526,350.217241 197.736842,351.328031 C198.748947,350.877241 200.447105,349.037767 202.000789,346.603031 C202.970263,345.080136 203.706842,343.608557 204.118158,342.446452 C204.591842,343.047241 205.056842,343.655136 205.510789,344.272504 C204.722105,345.02961 203.725789,346.460925 202.834474,348.200136 C201.702368,350.408294 201.073947,352.460925 201.181316,353.407504 C202.011842,352.939346 203.310526,351.230136 204.442632,349.022767 C205.232105,347.480925 205.776842,346.014873 205.997105,344.948294 C206.364211,345.475662 206.708421,346.018031 207.055789,346.55882 C207.385,347.077504 207.723684,347.593031 208.063158,348.107767 C207.211316,348.796978 206.108421,350.086188 205.074211,351.675399 C203.720263,353.754873 202.882632,355.730925 202.891316,356.68461 C203.766053,356.304873 205.236053,354.739346 206.589211,352.660662 C207.516053,351.235662 208.201316,349.85961 208.537632,348.827767 C209.126579,349.72461 209.706053,350.626978 210.230263,351.557767 C209.282895,352.295925 208.004737,353.863031 206.829211,355.816978 C205.406579,358.177504 204.554737,360.402241 204.602895,361.457767 C205.556579,361.00382 207.126842,359.210136 208.547895,356.850399 C209.589211,355.120662 210.324211,353.463557 210.625,352.286452 C211.127105,353.260662 211.599211,354.395136 211.714474,355.464083 C211.716842,355.491715 211.722368,355.518557 211.728684,355.54461 C211.42,356.468294 211.162632,357.745662 211.029211,359.166715 C210.815263,361.435662 210.977895,363.399873 211.39,364.16961 C211.937895,363.489873 212.465263,361.590399 212.680789,359.323031 C212.787368,358.19961 212.800789,357.151188 212.737632,356.284346 C213.398421,357.136978 214.371842,358.13882 215.534737,359.122504 C217.509211,360.79461 219.446579,361.918031 220.431053,362.032504 C220.154737,361.081188 218.725789,359.355399 216.750526,357.684083 C215.291579,356.448557 213.853158,355.512241 212.803158,355.061452 C212.789737,354.936715 212.777105,354.811188 212.757368,354.687241 C212.691053,354.294083 212.614474,353.930925 212.509474,353.544083 C212.449474,353.325399 212.383158,353.108294 212.309737,352.892767 C213.301316,353.335662 214.731842,353.758031 216.347105,354.046978 C218.818158,354.487504 220.989211,354.489873 221.871053,354.105399 C221.174737,353.442241 219.138684,352.689873 216.668421,352.247767 C214.777632,351.909873 213.063684,351.830136 211.966316,351.983294 C211.516316,350.898557 210.94,349.846188 210.364474,348.842767 C211.355263,349.333031 212.907368,349.811452 214.683684,350.12882 C217.153158,350.570136 219.324211,350.572504 220.206053,350.187241 C219.509737,349.523294 217.473684,348.772504 215.003421,348.330399 C212.895526,347.951452 211.006316,347.896188 209.948421,348.125925 C209.652368,347.622241 209.351579,347.123294 209.057895,346.61961 C208.877105,346.306978 208.701053,345.984873 208.516316,345.677767 C208.494211,345.639873 208.472105,345.602767 208.450789,345.564873 C209.440789,345.771715 210.893421,345.848294 212.501579,345.743294 C214.798947,345.591715 216.733947,345.115662 217.433421,344.578031 C216.668421,344.140662 214.688421,343.91882 212.391053,344.06961 C210.581579,344.186452 208.997895,344.509346 208.063158,344.901715 C207.944737,344.701188 207.824737,344.501452 207.701579,344.303294 C207.306842,343.669346 206.887632,343.041715 206.453421,342.424346 C207.583947,342.605925 209.282895,342.594873 211.156316,342.349346 C213.729211,342.010662 215.868684,341.335662 216.616316,340.681188 C215.723421,340.24461 213.482895,340.140399 210.910789,340.476715 C208.810789,340.749873 206.998947,341.252767 205.995526,341.783294 C205.572368,341.199083 205.137368,340.624346 204.701579,340.061452 C204.424474,339.70382 204.148158,339.345399 203.871053,338.987767 C204.880789,339.236452 206.491316,339.326452 208.289737,339.192241 C210.638421,339.01382 212.614474,338.510136 213.325,337.951978 C212.537105,337.512241 210.509737,337.305399 208.158684,337.479873 C206.132105,337.630662 204.383421,338.028557 203.484211,338.490399 C203.089474,337.983557 202.693947,337.478294 202.295263,336.976978 C202.167368,336.815925 202.040263,336.654083 201.914737,336.491452 C202.943421,336.639873 204.474211,336.610662 206.157368,336.371452 C208.490263,336.038294 210.427632,335.402767 211.101053,334.79961 C210.283947,334.412767 208.247895,334.341715 205.912632,334.672504 C204.013947,334.942504 202.376579,335.415399 201.469474,335.906452 C201.235,335.59461 201.003684,335.281978 200.773158,334.969346 C200.002632,333.925662 199.258158,332.825925 198.611579,331.699346 C198.561053,331.611715 198.511316,331.523294 198.461579,331.434873 C199.581053,332.000136 201.49,332.535399 203.690263,332.847241 C206.506316,333.245925 208.966316,333.156715 209.953947,332.685399 C209.136053,331.961452 206.796053,331.194083 203.980789,330.798557 C201.491579,330.444873 199.282632,330.473294 198.121316,330.80882 C197.941316,330.466188 197.769211,330.11882 197.610526,329.769083 C197.524474,329.583557 197.447105,329.394083 197.364211,329.206188 C197.254474,328.963031 197.046053,328.224083 196.907895,327.680925 C198.439474,328.189346 200.624737,328.599083 203.067368,328.783031 C206.776316,329.060925 209.980789,328.734083 211.227368,328.036978 C210.098421,327.160662 206.978421,326.359346 203.269474,326.080662 C200.625526,325.882504 198.238158,325.991452 196.633158,326.323031 C195.803421,321.200925 197.180263,318.909873 198.195526,315.425925 C198.353421,314.833031 196.732632,313.173557 196.140526,313.015662 C195.546842,312.856978 193.156316,313.942504 192.997632,314.535399 Z" id="cannes" fill="#E8BF42" fill-rule="nonzero" transform="translate(201.435526, 338.584805) scale(-1, 1) rotate(-180.000000) translate(-201.435526, -338.584805) "></path>
        </g>
    </g>
</svg>